Coordinates
version=1
nRows=4
nColumns=63
inDegrees=yes

Units are S.I. units (second, meters, Newtons, ...)
If the header above contains a line with 'inDegrees', this indicates whether rotational values are in degrees (yes) or radians (no).

endheader
time	pelvis_tilt	pelvis_list	pelvis_rotation	pelvis_tx	pelvis_ty	pelvis_tz	hip_flexion_r	hip_adduction_r	hip_rotation_r	knee_angle_r	knee_angle_r_beta	ankle_angle_r	subtalar_angle_r	mtp_angle_r	hip_flexion_l	hip_adduction_l	hip_rotation_l	knee_angle_l	knee_angle_l_beta	ankle_angle_l	subtalar_angle_l	mtp_angle_l	L5_S1_Flex_Ext	L5_S1_Lat_Bending	L5_S1_axial_rotation	L4_L5_Flex_Ext	L4_L5_Lat_Bending	L4_L5_axial_rotation	L3_L4_Flex_Ext	L3_L4_Lat_Bending	L3_L4_axial_rotation	L2_L3_Flex_Ext	L2_L3_Lat_Bending	L2_L3_axial_rotation	L1_L2_Flex_Ext	L1_L2_Lat_Bending	L1_L2_axial_rotation	L1_T12_Flex_Ext	L1_T12_Lat_Bending	L1_T12_axial_rotation	Abs_r3	Abs_r2	Abs_r1	Abs_t1	Abs_t2	neck_flexion	neck_bending	neck_rotation	arm_flex_r	arm_add_r	arm_rot_r	elbow_flex_r	pro_sup_r	wrist_flex_r	wrist_dev_r	arm_flex_l	arm_add_l	arm_rot_l	elbow_flex_l	pro_sup_l	wrist_flex_l	wrist_dev_l
      0.03333333	     27.05354729	      3.37675129	     -3.75168555	     -2.01527626	      0.72885752	      0.32270529	     36.37185798	      9.49460878	    -39.84006730	      0.02066413	      0.00036066	    -64.94184251	      7.32648017	      0.00000000	     36.52301819	     -5.27299311	    -39.89003096	      0.01520308	      0.00026534	    -62.94418220	      3.56811074	      0.00000000	      0.16223220	      0.15216258	      0.24928094	      0.30128142	      0.20237623	      0.26486100	      0.26653128	      0.36996809	      0.26486100	      0.18541518	      0.36996809	      0.21812082	      0.15064882	      0.31028993	      0.20254077	      0.09269948	      0.23569983	      0.18696071	      1.15880839	      1.72129350	      1.38642581	      0.00000000	      0.00000000	      0.00000000	      0.00000000	      0.00000001	   -120.13926830	    -21.72694357	    -19.41249504	    124.27488658	     49.37003165	      0.00000000	      3.92282630	   -108.86334474	     -6.75483916	     -1.71531896	    119.36588287	     46.14882647	      0.00000000	      3.92282630
      0.06666667	     27.22314817	      3.02166226	     -3.39300690	     -2.01538815	      0.72970487	      0.31885422	     36.29717799	      9.41598485	    -39.83908341	      0.02054818	      0.00035863	    -64.99028474	      7.23472459	      0.00000000	     36.40722232	     -5.20019677	    -39.88951924	      0.01526744	      0.00026647	    -62.98007587	      3.60091499	      0.00000000	      0.16118121	      0.11176407	     -0.04349639	      0.29932962	      0.14864621	     -0.04621492	      0.26480461	      0.27174316	     -0.04621492	      0.18421400	      0.27174316	     -0.03805934	      0.14967287	      0.22790929	     -0.03534082	      0.09209894	      0.17312255	     -0.03262230	      1.15130125	      1.26429752	     -0.24191389	      0.00000000	      0.00000000	      0.00000000	      0.00000000	      0.00000001	   -120.38574902	    -25.46962652	    -20.28188623	    124.49455393	     49.18710643	      0.00000000	      3.97183613	   -109.35587439	     -3.48876557	     -1.94429707	    119.22754535	     46.06308227	      0.00000000	      3.97183613
      0.10000000	     27.37281913	      2.72320233	     -3.06111564	     -2.01530711	      0.73040033	      0.31535799	     36.24030910	      9.32626396	    -39.83754408	      0.02045071	      0.00035693	    -65.06053033	      7.13573494	      0.00000000	     36.30419572	     -5.10408652	    -39.88939614	      0.01532621	      0.00026749	    -62.98744484	      3.58861458	      0.00000000	      0.15966486	      0.07835794	     -0.28665323	      0.29651361	      0.10421607	     -0.30456906	      0.26231339	      0.19051951	     -0.30456906	      0.18248097	      0.19051951	     -0.25082158	      0.14826479	      0.15978752	     -0.23290575	      0.09123250	      0.12137646	     -0.21498992	      1.14047011	      0.88640074	     -1.59427928	      0.00000000	      0.00000000	      0.00000000	      0.00000000	      0.00000001	   -120.60870036	    -28.55512539	    -21.03246727	    124.46860366	     49.00991875	      0.00000000	      4.02071770	   -109.76945413	     -0.88114559	     -2.03930278	    119.09553364	     46.00973411	      0.00000000	      4.02071770
      0.13333333	     27.47356683	      2.50057396	     -2.87464665	     -2.01497131	      0.73075306	      0.31245859	     36.21942139	      9.28259120	    -39.83647558	      0.02039362	      0.00035594	    -65.13892425	      7.06288738	      0.00000000	     36.23540133	     -5.06616665	    -39.88906911	      0.01536979	      0.00026825	    -63.01485629	      3.58770871	      0.00000000	      0.15762764	      0.05528772	     -0.42289497	      0.29273030	      0.07353267	     -0.44932590	      0.25896646	      0.13442656	     -0.44932590	      0.18015263	      0.13442656	     -0.37003310	      0.14637303	      0.11274272	     -0.34360216	      0.09006844	      0.08564068	     -0.31717122	      1.12591850	      0.62542573	     -2.35201493	      0.00000000	      0.00000000	      0.00000000	      0.00000000	      0.00000001	   -120.67226941	    -30.54667584	    -21.57948956	    124.14195460	     48.84734742	      0.00000000	      4.07710251	   -110.06211282	      0.70012684	     -1.91624232	    119.03835791	     45.98689230	      0.00000000	      4.07710251
